<?xml version="1.0" encoding="utf-8"?>
<svg width="50px" height="50px" viewBox="0 0 50 50" version="1.1" xmlns:xlink="http://www.w3.org/1999/xlink" xmlns="http://www.w3.org/2000/svg">
  <defs>
    <path d="M0 0L50 0L50 50L0 50L0 0Z" id="path_1" />
    <clipPath id="mask_1">
      <use xlink:href="#path_1" />
    </clipPath>
  </defs>
  <g id="Shape-+-Shape-+-Shape-Mask">
    <path d="M0 0L50 0L50 50L0 50L0 0Z" id="Mask" fill="none" fill-rule="evenodd" stroke="none" />
    <g clip-path="url(#mask_1)">
      <path d="M10.4201 19.9192C10.384 20.25 10.3118 22.4987 10.3118 22.9617C10.5644 23.0278 10.9613 23.0278 11.3942 23.0278C12.5485 23.0278 14.0638 22.8955 15.5068 22.6972C15.6873 21.4405 15.7233 18.9272 15.7594 17.5382C15.9037 15.2895 15.8676 11.3872 15.9037 9.66753C15.9037 6.22827 15.6873 4.17792 14.5328 2.6567C13.667 1.59846 12.729 1.06934 11.7549 1.06934C9.915 1.06934 8.00296 2.78898 6.81245 4.50862C4.32317 8.2786 2.33897 12.7761 1.04023 18.4642C0.210469 22.0357 0.174393 28.3852 0.210469 31.163C0.282622 33.6763 0.787692 36.5865 1.61745 38.703C2.55544 41.084 3.5295 42.7375 4.9004 44.3248C6.12699 45.7138 7.4979 46.9043 8.90487 47.0367C10.4562 47.235 12.26 46.243 13.5226 45.0525C15.1461 43.5973 16.048 42.2745 16.986 40.4888C16.1563 37.4463 14.641 33.3457 13.9916 31.8245C12.9815 33.6102 12.0796 34.933 10.9252 35.7267C10.3479 36.0573 9.66245 36.322 9.01311 36.1897C7.89474 36.0573 6.84853 34.2717 6.34345 32.6182C5.98269 31.3615 5.87446 29.5757 5.87446 28.1207C5.87446 26.9302 5.94661 25.8057 5.98269 25.2767C6.19915 22.9617 6.63206 19.8532 7.28144 17.7367C8.00296 15.6863 9.62636 12.9745 10.4562 12.1809C10.4562 12.1809 10.5644 13.4375 10.5644 15.554C10.5644 16.7445 10.5283 18.1997 10.4201 19.9192L10.4201 19.9192Z" id="Shape" fill="#FFFFFF" fill-opacity="0.8509804" fill-rule="evenodd" stroke="none" />
      <path d="M32.2539 35.6605C31.7849 34.47 30.5944 30.5017 30.2336 29.4433C32.2178 26.5332 33.1197 24.6813 34.0577 21.6388C34.5267 20.3162 34.671 18.9272 34.671 17.6043C34.671 14.8265 33.8413 12.3793 33.264 11.0565C32.6146 9.46912 32.1096 7.74948 28.7185 4.57475C26.9146 2.92125 25.0025 2.06143 22.5494 1.92915C21.9361 1.92915 20.8537 1.92915 20.3848 1.92915C19.3025 1.92915 19.3746 1.9953 18.0759 2.06143C17.7873 5.83142 17.8234 9.40298 17.8595 12.9084C17.8595 12.9084 18.7253 12.71 19.1582 12.9084C19.3025 16.017 19.1221 28.7158 19.1221 31.8245C19.1943 34.007 18.8335 44.4572 18.9056 45.5815C20.8898 45.6477 22.9823 45.6477 24.8944 45.3832C24.8944 42.1423 24.8583 38.1738 24.8583 34.7347C25.688 37.248 26.8425 41.4148 28.1051 44.5233C28.4659 45.4493 29.1153 47.3673 29.8368 48.624C30.7747 47.8303 32.9033 44.854 34.7432 41.3487C34.0577 40.0258 32.9033 37.248 32.2539 35.6605L32.2539 35.6605ZM24.6778 24.3507C24.5335 20.6468 24.6778 16.2154 24.6778 12.8423C24.9665 12.9084 25.1829 12.9745 25.3633 13.0407C26.626 13.4375 27.6001 14.8265 28.4659 16.4138C30.0533 19.4563 25.9766 23.7553 24.6778 24.3507L24.6778 24.3507Z" id="Shape" fill="#FFFFFF" fill-opacity="0.8509804" fill-rule="evenodd" stroke="none" />
      <path d="M48.8456 33.0812C47.4747 33.6102 46.1399 34.3378 44.769 34.7347C43.9032 34.9992 43.0374 35.396 42.2076 35.6605C42.2076 27.1285 42.3158 18.9933 42.6765 10.7919C42.8209 7.9479 43.0013 5.10388 43.0735 2.25985C40.9449 2.326 38.4195 2.92125 37.3373 3.18582C37.2291 8.41088 36.9405 13.173 36.9405 17.935C36.9405 24.549 36.724 31.0968 36.724 37.6448C36.724 40.8857 36.6157 43.862 36.7601 47.0367C37.5537 46.9705 38.3475 46.8382 39.1772 46.706C40.0791 46.5737 40.9449 46.3753 41.8829 46.1768C43.6506 45.78 45.3463 45.0525 47.0779 44.5233C48.0159 44.2588 49.0621 44.0603 50.0001 43.5973C49.7115 38.3723 49.1343 34.7347 48.8456 33.0812L48.8456 33.0812Z" id="Shape" fill="#FFFFFF" fill-opacity="0.8509804" fill-rule="evenodd" stroke="none" />
    </g>
  </g>
</svg>